<svg width="72" height="72" viewBox="0 0 72 72" fill="none" xmlns="http://www.w3.org/2000/svg">
<path d="M61.681 30.5662L39.181 8.06624C38.3371 7.22297 37.193 6.74927 36 6.74927C34.8071 6.74927 33.6629 7.22297 32.8191 8.06624L10.3191 30.5662C9.8992 30.983 9.56635 31.4791 9.3399 32.0257C9.11345 32.5722 8.99792 33.1584 9.00003 33.75V60.75C9.00003 61.3467 9.23708 61.919 9.65904 62.341C10.081 62.7629 10.6533 63 11.25 63H29.25C29.8468 63 30.4191 62.7629 30.841 62.341C31.263 61.919 31.5 61.3467 31.5 60.75V45H40.5V60.75C40.5 61.3467 40.7371 61.919 41.159 62.341C41.581 62.7629 42.1533 63 42.75 63H60.75C61.3468 63 61.9191 62.7629 62.341 62.341C62.763 61.919 63 61.3467 63 60.75V33.75C63.0021 33.1584 62.8866 32.5722 62.6602 32.0257C62.4337 31.4791 62.1009 30.983 61.681 30.5662ZM58.5 58.5H45V42.75C45 42.1533 44.763 41.581 44.341 41.159C43.9191 40.737 43.3468 40.5 42.75 40.5H29.25C28.6533 40.5 28.081 40.737 27.659 41.159C27.2371 41.581 27 42.1533 27 42.75V58.5H13.5V33.75L36 11.25L58.5 33.75V58.5Z" fill="white"/>
</svg>
