<svg width="69" height="69" viewBox="0 0 69 69" fill="none" xmlns="http://www.w3.org/2000/svg">
<path d="M34.5 6.46875C28.956 6.46875 23.5364 8.11275 18.9267 11.1929C14.317 14.273 10.7241 18.6509 8.60251 23.7729C6.4809 28.8949 5.92578 34.5311 7.00738 39.9686C8.08897 45.4062 10.7587 50.4008 14.6789 54.3211C18.5992 58.2413 23.5939 60.911 29.0314 61.9926C34.4689 63.0742 40.1051 62.5191 45.2271 60.3975C50.3491 58.2759 54.727 54.683 57.8071 50.0733C60.8873 45.4636 62.5313 40.0441 62.5313 34.5C62.5234 27.0681 59.5676 19.9428 54.3124 14.6876C49.0573 9.4324 41.932 6.4766 34.5 6.46875ZM34.5 58.2188C29.8089 58.2188 25.2231 56.8277 21.3226 54.2214C17.4221 51.6152 14.382 47.9108 12.5867 43.5768C10.7915 39.2427 10.3218 34.4737 11.237 29.8727C12.1522 25.2717 14.4112 21.0454 17.7283 17.7283C21.0455 14.4112 25.2717 12.1522 29.8727 11.237C34.4737 10.3218 39.2428 10.7915 43.5768 12.5867C47.9108 14.3819 51.6152 17.422 54.2214 21.3226C56.8277 25.2231 58.2188 29.8089 58.2188 34.5C58.2116 40.7884 55.7104 46.8172 51.2638 51.2638C46.8172 55.7104 40.7884 58.2116 34.5 58.2188ZM38.8125 47.4375C38.8125 48.0094 38.5853 48.5578 38.181 48.9622C37.7766 49.3666 37.2281 49.5938 36.6563 49.5938C35.5125 49.5938 34.4156 49.1394 33.6069 48.3306C32.7981 47.5219 32.3438 46.425 32.3438 45.2812V34.5C31.7719 34.5 31.2234 34.2728 30.8191 33.8684C30.4147 33.4641 30.1875 32.9156 30.1875 32.3438C30.1875 31.7719 30.4147 31.2234 30.8191 30.8191C31.2234 30.4147 31.7719 30.1875 32.3438 30.1875C33.4875 30.1875 34.5844 30.6419 35.3932 31.4506C36.2019 32.2594 36.6563 33.3563 36.6563 34.5V45.2812C37.2281 45.2812 37.7766 45.5084 38.181 45.9128C38.5853 46.3172 38.8125 46.8656 38.8125 47.4375ZM30.1875 22.6406C30.1875 22.0009 30.3772 21.3756 30.7326 20.8437C31.088 20.3118 31.5931 19.8973 32.1841 19.6525C32.7752 19.4076 33.4255 19.3436 34.0529 19.4684C34.6803 19.5932 35.2566 19.9012 35.7089 20.3536C36.1613 20.8059 36.4693 21.3822 36.5941 22.0096C36.7189 22.637 36.6549 23.2874 36.4101 23.8784C36.1653 24.4694 35.7507 24.9745 35.2188 25.3299C34.6869 25.6853 34.0616 25.875 33.4219 25.875C32.5641 25.875 31.7414 25.5342 31.1348 24.9277C30.5283 24.3211 30.1875 23.4984 30.1875 22.6406Z" fill="white"/>
</svg>
