<svg width="71" height="71" viewBox="0 0 71 71" fill="none" xmlns="http://www.w3.org/2000/svg">
<path d="M63.4895 13.7812C63.2238 13.5741 62.9143 13.4302 62.5846 13.3605C62.255 13.2909 61.9138 13.2972 61.587 13.379L44.6329 17.6168L27.6179 9.10791C27.1438 8.87145 26.6008 8.81242 26.087 8.94151L8.33695 13.379C7.85695 13.499 7.43082 13.776 7.1263 14.1659C6.82177 14.5559 6.65632 15.0364 6.65625 15.5312V55.4687C6.6563 55.8058 6.73318 56.1385 6.88106 56.4415C7.02893 56.7445 7.2439 57.0098 7.50965 57.2173C7.7754 57.4247 8.08494 57.5689 8.41475 57.6388C8.74456 57.7088 9.08597 57.7026 9.41305 57.6209L26.3671 53.3831L43.3821 61.892C43.691 62.0443 44.0306 62.1239 44.375 62.1249C44.5564 62.1248 44.7371 62.1025 44.913 62.0584L62.663 57.6209C63.1431 57.5009 63.5692 57.2239 63.8737 56.834C64.1782 56.444 64.3437 55.9635 64.3438 55.4687V15.5312C64.3438 15.1937 64.2669 14.8607 64.1189 14.5574C63.9709 14.2542 63.7556 13.9887 63.4895 13.7812ZM28.8438 14.6825L42.1562 21.3388V56.3174L28.8438 49.6611V14.6825ZM11.0938 17.2646L24.4062 13.9365V49.2978L11.0938 52.6259V17.2646ZM59.9062 53.7353L46.5938 57.0634V21.7021L59.9062 18.374V53.7353Z" fill="white"/>
</svg>
