<svg width="146" height="19" viewBox="0 0 146 19" fill="none" xmlns="http://www.w3.org/2000/svg">
<path d="M11.1808 18H4.94078C4.63678 18 4.38078 17.944 4.17278 17.832C3.98078 17.72 3.82878 17.512 3.71678 17.208L1.36478 11.328C1.22078 10.976 1.10078 10.672 1.00478 10.416C0.908781 10.144 0.828781 9.888 0.764781 9.648C0.700781 9.408 0.652781 9.16 0.620781 8.904C0.604781 8.632 0.596781 8.304 0.596781 7.92V1.584C0.596781 1.28 0.660781 1.064 0.788781 0.935999C0.932781 0.791999 1.15678 0.719999 1.46078 0.719999H5.27678C5.58078 0.719999 5.81278 0.791999 5.97278 0.935999C6.13278 1.064 6.21278 1.28 6.21278 1.584V8.208C6.21278 8.368 6.22878 8.528 6.26078 8.688C6.29278 8.848 6.34078 9.016 6.40478 9.192L7.53278 12.552C7.58078 12.712 7.63678 12.824 7.70078 12.888C7.76478 12.936 7.86078 12.96 7.98878 12.96H8.25278C8.38078 12.96 8.47678 12.936 8.54078 12.888C8.60478 12.824 8.66078 12.712 8.70878 12.552L9.83678 9.168C9.90078 8.992 9.94878 8.824 9.98078 8.664C10.0128 8.504 10.0288 8.344 10.0288 8.184V1.584C10.0288 1.28 10.0928 1.064 10.2208 0.935999C10.3648 0.791999 10.5888 0.719999 10.8928 0.719999H14.6608C14.9648 0.719999 15.1808 0.791999 15.3088 0.935999C15.4528 1.064 15.5248 1.28 15.5248 1.584V7.92C15.5248 8.304 15.5088 8.632 15.4768 8.904C15.4608 9.16 15.4208 9.408 15.3568 9.648C15.2928 9.888 15.2128 10.144 15.1168 10.416C15.0208 10.672 14.9008 10.976 14.7568 11.328L12.4048 17.208C12.2928 17.512 12.1328 17.72 11.9248 17.832C11.7328 17.944 11.4848 18 11.1808 18ZM33.128 13.464C33.128 14.2 33.016 14.872 32.792 15.48C32.584 16.072 32.2 16.584 31.64 17.016C31.096 17.432 30.336 17.76 29.36 18C28.4 18.24 27.176 18.36 25.688 18.36C24.2 18.36 22.968 18.24 21.992 18C21.016 17.76 20.248 17.432 19.688 17.016C19.144 16.584 18.76 16.072 18.536 15.48C18.328 14.872 18.224 14.2 18.224 13.464V5.28C18.224 4.544 18.328 3.88 18.536 3.288C18.76 2.68 19.144 2.16 19.688 1.728C20.248 1.296 21.016 0.959999 21.992 0.719999C22.968 0.48 24.2 0.36 25.688 0.36C27.176 0.36 28.4 0.48 29.36 0.719999C30.336 0.959999 31.096 1.296 31.64 1.728C32.2 2.16 32.584 2.68 32.792 3.288C33.016 3.88 33.128 4.544 33.128 5.28V13.464ZM23.672 12.6C23.672 12.92 23.792 13.192 24.032 13.416C24.272 13.624 24.824 13.728 25.688 13.728C26.552 13.728 27.104 13.624 27.344 13.416C27.584 13.192 27.704 12.92 27.704 12.6V6.144C27.704 5.84 27.584 5.584 27.344 5.376C27.104 5.152 26.552 5.04 25.688 5.04C24.824 5.04 24.272 5.152 24.032 5.376C23.792 5.584 23.672 5.84 23.672 6.144V12.6ZM36.6633 18C36.3593 18 36.1353 17.936 35.9913 17.808C35.8633 17.664 35.7993 17.44 35.7993 17.136V14.28C35.7993 13.976 35.8633 13.76 35.9913 13.632C36.1353 13.488 36.3593 13.416 36.6633 13.416H39.0393V5.352H36.6633C36.3593 5.352 36.1353 5.288 35.9913 5.16C35.8633 5.016 35.7993 4.792 35.7993 4.488V1.584C35.7993 1.28 35.8633 1.064 35.9913 0.935999C36.1353 0.791999 36.3593 0.719999 36.6633 0.719999H46.8873C47.1913 0.719999 47.4073 0.791999 47.5353 0.935999C47.6793 1.064 47.7513 1.28 47.7513 1.584V4.488C47.7513 4.792 47.6793 5.016 47.5353 5.16C47.4073 5.288 47.1913 5.352 46.8873 5.352H44.5593V13.416H46.8873C47.1913 13.416 47.4073 13.488 47.5353 13.632C47.6793 13.76 47.7513 13.976 47.7513 14.28V17.136C47.7513 17.44 47.6793 17.664 47.5353 17.808C47.4073 17.936 47.1913 18 46.8873 18H36.6633ZM56.1386 5.04V8.112H57.9386C58.3546 8.112 58.6346 8.008 58.7786 7.8C58.9226 7.576 58.9946 7.304 58.9946 6.984V6.168C58.9946 5.848 58.9226 5.584 58.7786 5.376C58.6346 5.152 58.3546 5.04 57.9386 5.04H56.1386ZM55.2746 18H51.5786C51.2746 18 51.0506 17.936 50.9066 17.808C50.7786 17.664 50.7146 17.44 50.7146 17.136V1.584C50.7146 1.28 50.7786 1.064 50.9066 0.935999C51.0506 0.791999 51.2746 0.719999 51.5786 0.719999H59.5706C61.3626 0.719999 62.5946 1.096 63.2666 1.848C63.9546 2.584 64.2986 3.544 64.2986 4.728V5.832C64.2986 6.504 64.1946 7.08 63.9866 7.56C63.7946 8.024 63.4506 8.36 62.9546 8.568C63.8186 8.664 64.5146 9.016 65.0426 9.624C65.5866 10.232 65.8586 11.04 65.8586 12.048V17.136C65.8586 17.44 65.7866 17.664 65.6426 17.808C65.5146 17.936 65.2986 18 64.9946 18H61.2746C60.9706 18 60.7466 17.936 60.6026 17.808C60.4746 17.664 60.4106 17.44 60.4106 17.136V13.464C60.4106 13.112 60.3386 12.856 60.1946 12.696C60.0666 12.52 59.8346 12.432 59.4986 12.432H56.1386V17.136C56.1386 17.44 56.0666 17.664 55.9226 17.808C55.7946 17.936 55.5786 18 55.2746 18ZM85.9412 18H74.8052C74.5012 18 74.2772 17.936 74.1332 17.808C74.0052 17.664 73.9412 17.44 73.9412 17.136V1.584C73.9412 1.28 74.0052 1.064 74.1332 0.935999C74.2772 0.791999 74.5012 0.719999 74.8052 0.719999H85.9412C86.2452 0.719999 86.4612 0.791999 86.5892 0.935999C86.7332 1.064 86.8052 1.28 86.8052 1.584V4.392C86.8052 4.696 86.7332 4.92 86.5892 5.064C86.4612 5.192 86.2452 5.256 85.9412 5.256H79.3172V7.104H83.9972C84.3012 7.104 84.5172 7.176 84.6452 7.32C84.7892 7.448 84.8612 7.664 84.8612 7.968V10.536C84.8612 10.84 84.7892 11.064 84.6452 11.208C84.5172 11.336 84.3012 11.4 83.9972 11.4H79.3172V13.464H85.9412C86.2452 13.464 86.4612 13.536 86.5892 13.68C86.7332 13.808 86.8052 14.024 86.8052 14.328V17.136C86.8052 17.44 86.7332 17.664 86.5892 17.808C86.4612 17.936 86.2452 18 85.9412 18ZM94.1083 18H90.5083C90.2043 18 89.9803 17.936 89.8363 17.808C89.7083 17.664 89.6443 17.44 89.6443 17.136V1.584C89.6443 1.28 89.7083 1.064 89.8363 0.935999C89.9803 0.791999 90.2043 0.719999 90.5083 0.719999H93.0043C93.3083 0.719999 93.5643 0.767999 93.7723 0.863999C93.9963 0.96 94.2123 1.128 94.4203 1.368L99.0763 6.696V1.584C99.0763 1.28 99.1403 1.064 99.2683 0.935999C99.4123 0.791999 99.6363 0.719999 99.9403 0.719999H103.54C103.844 0.719999 104.06 0.791999 104.188 0.935999C104.332 1.064 104.404 1.28 104.404 1.584V17.136C104.404 17.44 104.332 17.664 104.188 17.808C104.06 17.936 103.844 18 103.54 18H99.9403C99.6363 18 99.4123 17.936 99.2683 17.808C99.1403 17.664 99.0763 17.44 99.0763 17.136V14.184L94.9723 9.216V17.136C94.9723 17.44 94.9003 17.664 94.7563 17.808C94.6283 17.936 94.4123 18 94.1083 18ZM119.252 5.76L118.124 9.408H121.892L120.764 5.76C120.7 5.616 120.628 5.512 120.548 5.448C120.484 5.384 120.404 5.352 120.308 5.352H119.708C119.612 5.352 119.524 5.384 119.444 5.448C119.38 5.512 119.316 5.616 119.252 5.76ZM117.884 17.136C117.884 17.44 117.812 17.664 117.668 17.808C117.54 17.936 117.324 18 117.02 18H113.492C113.188 18 112.964 17.936 112.82 17.808C112.692 17.664 112.628 17.44 112.628 17.136V10.8C112.628 10.32 112.7 9.768 112.844 9.144C113.004 8.52 113.244 7.792 113.564 6.96L115.652 1.512C115.748 1.24 115.892 1.04 116.084 0.912C116.292 0.783999 116.556 0.719999 116.876 0.719999H123.332C123.636 0.719999 123.884 0.783999 124.076 0.912C124.284 1.04 124.436 1.24 124.532 1.512L126.62 6.96C126.94 7.792 127.172 8.52 127.316 9.144C127.476 9.768 127.556 10.32 127.556 10.8V17.136C127.556 17.44 127.484 17.664 127.34 17.808C127.212 17.936 126.996 18 126.692 18H123.068C122.748 18 122.508 17.936 122.348 17.808C122.204 17.664 122.132 17.44 122.132 17.136V13.776H117.884V17.136ZM135.943 5.04V8.112H137.743C138.159 8.112 138.439 8.008 138.583 7.8C138.727 7.576 138.799 7.304 138.799 6.984V6.168C138.799 5.848 138.727 5.584 138.583 5.376C138.439 5.152 138.159 5.04 137.743 5.04H135.943ZM135.079 18H131.383C131.079 18 130.855 17.936 130.711 17.808C130.583 17.664 130.519 17.44 130.519 17.136V1.584C130.519 1.28 130.583 1.064 130.711 0.935999C130.855 0.791999 131.079 0.719999 131.383 0.719999H139.375C141.167 0.719999 142.399 1.096 143.071 1.848C143.759 2.584 144.103 3.544 144.103 4.728V5.832C144.103 6.504 143.999 7.08 143.791 7.56C143.599 8.024 143.255 8.36 142.759 8.568C143.623 8.664 144.319 9.016 144.847 9.624C145.391 10.232 145.663 11.04 145.663 12.048V17.136C145.663 17.44 145.591 17.664 145.447 17.808C145.319 17.936 145.103 18 144.799 18H141.079C140.775 18 140.551 17.936 140.407 17.808C140.279 17.664 140.215 17.44 140.215 17.136V13.464C140.215 13.112 140.143 12.856 139.999 12.696C139.871 12.52 139.639 12.432 139.303 12.432H135.943V17.136C135.943 17.44 135.871 17.664 135.727 17.808C135.599 17.936 135.383 18 135.079 18Z" fill="white"/>
</svg>
